<?xml version="1.0" encoding="UTF-8"?>
<svg width="90px" height="72px" viewBox="0 0 90 72" version="1.1" xmlns="http://www.w3.org/2000/svg" xmlns:xlink="http://www.w3.org/1999/xlink">
    <!-- Generator: Sketch 48.1 (47250) - http://www.bohemiancoding.com/sketch -->
    <title>Shape</title>
    <desc>Created with Sketch.</desc>
    <defs></defs>
    <g id="Page-1" stroke="none" stroke-width="1" fill="none" fill-rule="evenodd">
        <g id="Group" transform="translate(0.000000, -0.362160)" fill="#EFF100" fill-rule="nonzero">
            <path d="M55.277622,1.51064 L38.601651,2.13209 C38.3413073,1.83876947 37.9680561,1.67064071 37.575863,1.67003 C37.0114828,1.67051189 36.5047609,2.0159635 36.298085,2.54114 L14.541174,12.57456 C14.3742118,12.5051128 14.1951864,12.4692953 14.014357,12.46916 C13.2792025,12.4700834 12.6749369,13.0493407 12.64296,13.7838 L6.454694,20.40764 L5.216164,21.58007 C5.12315462,21.5604141 5.02835692,21.5504608 4.9332933,21.55037 C4.56876243,21.5503707 4.21916302,21.6951851 3.96140721,21.9529538 C3.7036514,22.2107225 3.55885452,22.5603291 3.558872,22.92486 C3.55946393,23.2982895 3.71197922,23.6554029 3.9813333,23.91405 L0.6815091,35.7292 C0.260024555,35.9752475 0.00063063796,36.4263547 0,36.9144 C0.000450040449,37.575548 0.471563152,38.1426923 1.1214125,38.2644 L6.072499,50.2882 C5.87569939,50.5321595 5.76819786,50.8360576 5.767821,51.1495 C5.76780087,51.5140325 5.91259654,51.8636417 6.17035257,52.1214126 C6.4281086,52.3791834 6.77770945,52.5239992 7.142242,52.524 C7.56938602,52.5232513 7.97190309,52.3239515 8.231443,51.9847 L19.893581,54.6443 C19.9844979,55.3266571 20.566196,55.8365077 21.254583,55.8372 C21.6894341,55.8366372 22.0983676,55.6303215 22.357212,55.2809 L30.813477,57.6297 C31.0409732,58.1085225 31.5235618,58.4138265 32.05368,58.4143 C32.8127432,58.4142988 33.4280887,57.7989632 33.428102,57.0399 C33.4276695,57.0089296 34.6827682,55.8617629 37.193398,53.5984 C37.387465,53.6984151 37.6025661,53.75076 37.820889,53.7511 C38.2668474,53.7507717 38.6849252,53.5340925 38.942302,53.1699 L43.493409,54.7142 C43.6608365,55.3058839 44.2009029,55.7143611 44.815819,55.7144 C44.9145898,55.7139819 45.0130277,55.702918 45.109427,55.6814 L54.017348,64.9001 C54.0028801,64.9790237 53.9953514,65.0590628 53.994848,65.1393 C53.9948613,65.8983632 54.6102068,66.5136988 55.36927,66.5137 C55.464379,66.5131819 55.5591773,66.5027929 55.652141,66.4827 L59.929098,70.2013 C59.9006145,70.3115898 59.8859521,70.4249927 59.885448,70.5389 C59.8854613,71.2979628 60.5008062,71.9132983 61.259869,71.9133 C61.9889555,71.9122571 62.5903638,71.3420944 62.630267,70.6141 L66.544154,69.7698 C66.8035366,70.114486 67.2096993,70.3173963 67.641078,70.3178 C68.0056105,70.3177992 68.3552114,70.1729834 68.6129674,69.9152126 C68.8707235,69.6574417 69.0155191,69.3078325 69.015499,68.9433 C69.0154857,68.1842372 68.4001408,67.5689017 67.641078,67.5689 C67.4703629,67.5689738 67.3011555,67.6008509 67.142116,67.6629 L64.736868,62.5842 C64.885912,62.3593675 64.9655017,62.0956475 64.96572,61.8259 C64.9651619,61.7263288 64.9537851,61.6271131 64.93179,61.53 L66.48137,59.2056 C66.6180463,59.2499131 66.7608257,59.272521 66.904506,59.2726 C67.3609486,59.2724645 67.7875465,59.0457386 68.043037,58.6675 L72.999145,59.0374 C73.2115445,59.5506878 73.7120395,59.8856553 74.267537,59.8863 C75.0265998,59.8862983 75.6419447,59.2709628 75.641958,58.5119 C75.6417602,58.4847845 76.5670172,56.9732512 78.417729,53.9773 C78.7302906,53.9255385 79.0153727,53.7673845 79.224735,53.5296 L81.841043,53.5296 C82.0570319,54.0352189 82.5535677,54.3634647 83.103387,54.3641 C83.8624498,54.3640983 84.4777947,53.7487628 84.477808,52.9897 C84.4772308,52.5999792 84.3112316,52.2288256 84.021119,51.9686 L88.779929,44.7818 C89.4742347,44.7033309 89.9991716,44.1164254 90,43.4177 C89.9991268,42.7892269 89.5720721,42.2414042 88.96281,42.0872 L87.6008,33.19005 C88.022153,32.9439163 88.2814074,32.4928252 88.281967,32.00485 C88.2819537,31.2457868 87.6666082,30.6304512 86.907545,30.63045 C86.8731345,30.6309601 83.7840372,25.3188168 77.640253,14.69402 C77.7773689,14.4758435 77.8503886,14.2235147 77.850979,13.96583 C77.8509602,13.2067675 77.2356115,12.5914367 76.476549,12.59144 C76.231416,12.5920463 75.9909057,12.658202 75.779947,12.78305 L57.814793,1.89215 C57.6769511,1.2617969 57.1191718,0.812197811 56.473924,0.81134 C55.9783522,0.811342432 55.521089,1.07867712 55.277622,1.51064 Z M56.308099,3.54852 L58.378798,12.67851 L38.9362,3.22866 C38.9399479,3.2026514 38.9429491,3.17654067 38.9452,3.15036 L55.148706,2.54672 C55.2958323,3.08544115 55.754092,3.48113775 56.308099,3.54852 Z M74.350436,13.12212 L60.766928,13.22012 C60.5324088,12.7593654 60.0591649,12.4691945 59.54216,12.46915 C59.4914579,12.4696831 59.4408242,12.4730216 59.390491,12.47915 L57.304357,3.2796 C57.4196023,3.19246962 57.5203891,3.0877134 57.603005,2.96919 L74.350436,13.12212 Z M36.656115,4.06386 L29.525285,15.11166 C29.3904692,15.0684079 29.2497798,15.0462464 29.108196,15.04596 C28.5951014,15.0465128 28.1250365,15.3328211 27.889133,15.78847 L15.358584,13.5651 C15.344413,13.495008 15.3247935,13.4261289 15.299904,13.35909 L36.345102,3.65454 C36.4221097,3.8095028 36.5276372,3.94827795 36.656115,4.06386 Z M38.462402,4.14441 L56.625197,12.97245 L42.04912,14.57238 L38.462402,4.14441 Z M40.998502,14.68785 L30.35947,15.85552 C30.3478595,15.8293381 30.3354334,15.8035255 30.32221,15.77812 L37.531556,4.60828 L40.998502,14.68785 Z M44.836555,21.77834 C44.7229989,21.7034055 44.598946,21.6457468 44.468454,21.60725 L42.392723,15.57165 L57.955329,13.86372 L44.836555,21.77834 Z M75.430242,14.85462 L72.658917,22.1126 L60.851817,14.25864 C60.8524238,14.2566421 65.6071025,14.2194121 75.115853,14.14695 C75.1509996,14.4084713 75.2600102,14.6538748 75.430242,14.85462 Z M27.794507,16.81924 C27.8371398,16.9594984 27.901937,17.0920332 27.986442,17.21182 L17.817184,27.69217 C17.7768459,27.6873764 17.7363151,27.6843734 17.695711,27.68317 C17.6088416,27.6836744 17.5222157,27.6924135 17.436996,27.70927 C17.361396,27.31624 17.290521,26.94427 17.187344,26.42452 C16.887832,24.91539 16.489023,22.95123 16.090088,21.00263 C15.568977,18.45715 15.139019,16.3795 14.840155,14.93814 C14.9718799,14.8387664 15.0846343,14.7164854 15.173021,14.57715 L27.794507,16.81924 Z M52.099938,33.49385 C51.964596,33.5267767 51.8350455,33.5800857 51.715726,33.65195 L45.066074,23.87931 C45.3144009,23.6234969 45.4536083,23.2811994 45.454308,22.92468 C45.4536863,22.8254032 45.4423099,22.7264859 45.420378,22.62966 L58.224438,14.90493 L52.099938,33.49385 Z M72.281753,23.10018 L68.65611,32.59625 C68.4531467,32.596336 68.284878,32.627868 68.126611,32.68925 L60.166294,15.06976 C60.1711595,15.0670044 64.2096459,17.743811 72.281753,23.10018 Z M13.842556,15.20553 C14.143589,16.65796 14.568489,18.71266 15.080078,21.21152 C15.478797,23.15913 15.877597,25.12221 16.176326,26.62738 C16.261466,27.0565 16.315125,27.3409 16.381689,27.68434 L6.286915,22.68762 C6.26017406,22.5376627 6.20869137,22.3931936 6.134572,22.26012 L7.186531,21.13439 L13.530498,15.12795 C13.6311311,15.1660495 13.7358668,15.1920272 13.842556,15.20553 Z M85.619308,30.73405 L73.538733,22.69824 L76.350333,15.3345 C76.3923401,15.3394449 76.434553,15.3424481 76.476837,15.3435 C76.5857378,15.3431484 76.6942109,15.3298551 76.799974,15.3039 L85.619308,30.73405 Z M67.338389,33.44605 L53.713607,34.3544 C53.60557,34.0609227 53.4006784,33.8130642 53.132763,33.65175 L59.162646,15.35106 L67.338389,33.44605 Z M43.417845,21.72155 C43.2651354,21.8053154 43.1297389,21.9173435 43.018864,22.05167 L30.800048,16.84354 L41.342114,15.68658 L43.417845,21.72155 Z M42.668214,23.02242 L35.4998,27.01519 C35.254626,26.8144226 34.9476085,26.7045422 34.630721,26.70415 C34.5981846,26.7029936 34.5656174,26.7029936 34.533081,26.70415 L29.863192,17.56471 C29.863792,17.5647106 34.1321327,19.3839473 42.668214,23.02242 Z M33.607958,27.16252 C33.3820278,27.4141935 33.2568235,27.7403334 33.2563,28.07854 C33.2564484,28.3839816 33.3583367,28.6806716 33.545876,28.92176 L26.857307,39.5933 C26.8304628,39.592513 26.8036012,39.592513 26.776757,39.5933 C26.5955009,39.5937144 26.4161167,39.629977 26.248932,39.7 L18.729193,29.96873 C18.9486435,29.7184079 19.0697838,29.3969457 19.070114,29.06405 C19.0698941,28.7496385 18.9618824,28.444807 18.764095,28.2004 L28.833353,17.82274 L33.607958,27.16252 Z M73.161911,23.68518 L85.448848,31.85855 L69.654708,32.87085 L73.161911,23.68518 Z M15.925333,28.60819 L2.2250499,35.836 C2.09432314,35.7323834 1.94582598,35.6534297 1.7868205,35.603 L4.9440303,24.29835 C5.38427681,24.2944173 5.79599417,24.0798188 6.051358,23.72118 L15.925333,28.60819 Z M44.079887,24.29871 C44.0853269,24.2987584 46.4183079,27.7157884 51.07883,34.5498 C51.0597242,34.641506 51.0500439,34.734925 51.04994,34.8286 C51.0504061,34.9398107 51.0643681,35.0505538 51.09152,35.1584 L46.405188,42.29 C46.2908986,42.2908644 46.1771633,42.3059811 46.066616,42.335 L35.79132,28.81223 C35.9302792,28.5931254 36.0043828,28.3391633 36.005062,28.07971 C36.004438,28.0266507 36.0007418,27.973672 35.993992,27.92104 L43.149995,23.93529 C43.4032963,24.1678311 43.7351702,24.2980258 44.079887,24.29871 Z M45.239558,42.9487 C45.229868,42.9638476 45.2204762,42.9791839 45.211388,42.9947 L28.102893,40.6042 C28.0456498,40.394556 27.9395098,40.201474 27.793184,40.0408 L34.439138,29.4381 C34.5025697,29.4476651 34.5665932,29.4527776 34.630739,29.4534 C34.7396757,29.4527538 34.8481493,29.4391584 34.953876,29.4129 L45.239558,42.9487 Z M11.343698,40.4918 C11.1191023,40.5489385 10.9126013,40.6619409 10.743396,40.8203 L2.7475105,36.8702 C2.74569327,36.8240204 2.74154801,36.7779619 2.7350905,36.7322 L16.35585,29.54645 L11.343698,40.4918 Z M19.578157,47.478 L12.913753,42.4302 C13.0074969,42.2413065 13.0565186,42.0333753 13.057024,41.8225 C13.0563735,41.3459279 12.8088918,40.9037064 12.403037,40.6539 L17.048762,30.50905 L19.578157,47.478 Z M25.511065,40.4273 C25.4392448,40.5969725 25.4022721,40.7793532 25.402345,40.9636 C25.403249,41.6412596 25.897946,42.2171299 26.567722,42.3202 L31.309756,55.8833 C31.1996951,55.9544341 31.1003732,56.0409433 31.014807,56.1402 L20.75293,48.3679 L18.149717,30.90065 L25.511065,40.4273 Z M82.781537,40.4471 L69.993289,34.0528 C69.9953453,34.0248433 69.9965459,33.9968302 69.996889,33.9688 C69.9968867,33.9401122 69.9959863,33.9114315 69.994189,33.8828 L85.776917,32.8714 L82.781537,40.4471 Z M87.941334,42.2275 C87.719905,42.3544007 87.5381825,42.5404481 87.416524,42.7648 L83.706991,40.9098 L86.614559,33.55565 L87.941334,42.2275 Z M65.358968,46.1622 L53.670316,35.4048 C53.6719338,35.4016981 58.1771168,35.0967981 67.185865,34.4901 L65.358968,46.1622 Z M68.622891,35.3434 C68.7577708,35.3430356 68.8918624,35.3228189 69.020854,35.2834 L76.50804,45.1795 L66.763593,46.7344 C66.6456268,46.6181437 66.5076192,46.5241665 66.356225,46.457 L68.111167,35.2438 C68.2737986,35.3090791 68.4474982,35.3430231 68.622891,35.3434 Z M82.401015,41.4091 L81.207117,44.4291 L77.660998,44.9948 L70.413734,35.4155 L82.401015,41.4091 Z M64.671086,46.9303 C64.5117022,47.1601634 64.4262466,47.4331852 64.426133,47.7129 C64.4263902,47.7222389 61.3034436,49.6304056 55.057293,53.4374 C54.8908385,53.2890776 54.6908005,53.1834747 54.474433,53.1297 L52.615099,36.1869 C52.7180192,36.1726924 52.8189965,36.1468607 52.916096,36.1099 L64.671086,46.9303 Z M53.398858,52.7824 L47.56494,44.408 C47.708663,44.1860729 47.7853233,43.9274007 47.785729,43.663 C47.7852917,43.2962095 47.6382631,42.9448101 47.377362,42.687 L51.587548,36.2802 L53.398858,52.7824 Z M10.311539,41.7565 C10.3098101,41.778468 10.3086097,41.8004743 10.307939,41.8225 C10.3086069,42.1503233 10.4264274,42.4671121 10.640139,42.7157 L7.062142,49.7771 C7.03486843,49.7796201 7.00767629,49.7829549 6.980602,49.7871 L2.147632,38.0498 C2.23469568,37.990396 2.31463731,37.9211743 2.3858807,37.8435 L10.311539,41.7565 Z M44.927158,43.9956 L38.299988,51.0895 C38.1468866,51.0319067 37.9847336,51.0021059 37.821159,51.0015 C37.486909,51.0021194 37.1643396,51.1245222 36.913821,51.3458 L27.977379,41.6309 C27.977979,41.6309006 33.6279053,42.4191339 44.927158,43.9956 Z M83.32647,41.8718 L86.690726,43.554 L82.390278,44.2402 L83.32647,41.8718 Z M36.447404,52.3619 C36.4474025,52.5257141 36.4725746,52.6744088 36.52124,52.8161 L32.916063,55.9707 C32.7472133,55.8340856 32.5483906,55.7394324 32.335894,55.6945 L27.935106,43.1072 L36.447404,52.3619 Z M19.795597,48.9358 L20.453283,53.348 C20.3378533,53.4308916 20.2359772,53.5311834 20.151287,53.6453 L8.505593,50.9894 C8.46605259,50.6513429 8.30248379,50.3399814 8.046556,50.1156 L11.555091,43.1905 C11.5974168,43.1958103 11.6399668,43.1991472 11.682603,43.2005 C11.8318417,43.1998079 11.9799715,43.174814 12.121175,43.1265 L19.795597,48.9358 Z M87.747401,44.4754 L83.01677,51.6193 C82.9139533,51.6258741 82.8122018,51.6439878 82.713433,51.6733 L80.571265,48.8419 L81.949718,45.3551 L87.705119,44.4368 C87.7189273,44.4496937 87.7330304,44.4626966 87.747401,44.4754 Z M44.139953,53.145 C43.9216316,53.2682814 43.7411916,53.4489338 43.618167,53.6674 L39.178129,52.1608 C39.1571921,52.030649 39.11764,51.904187 39.060688,51.7853 L45.482163,44.9118 L44.139953,53.145 Z M52.838822,53.7823 L46.153268,54.0299 C46.0415836,53.5476929 45.6792437,53.1627832 45.204656,53.0222 L46.506609,45.0344 C46.578951,45.0290841 46.6507586,45.0180496 46.721359,45.0014 L52.838822,53.7823 Z M80.766538,45.5435 L79.8431,47.8792 L78.365997,45.9267 L80.766538,45.5435 Z M79.399497,49.0013 L78.497865,51.2824 C78.398478,51.2595281 78.2968541,51.2477891 78.19487,51.2474 C77.7933152,51.2476038 77.4119323,51.4234068 77.150966,51.7286 L68.019565,47.5778 L77.212697,46.1111 L79.399497,49.0013 Z M76.823464,52.7119 C76.8501686,53.1088779 77.0475921,53.4748041 77.364708,53.7151 L75.052079,57.3837 C74.8218797,57.2236711 74.5482467,57.1378676 74.267888,57.1378 C74.1954964,57.1380998 74.1232416,57.1441185 74.051798,57.1558 L67.423619,48.4395 L76.823464,52.7119 Z M65.421041,49.0329 L66.124024,56.7694 C65.7529076,57.0255941 65.5310782,57.4475428 65.530427,57.8985 C65.5307675,58.1207517 65.5850007,58.3396058 65.688477,58.5363 L64.285534,60.6406 C64.0751589,60.5169143 63.8356452,60.4514727 63.591605,60.451 C63.3151204,60.451511 63.0452173,60.535397 62.817153,60.6917 L55.433647,54.9286 C55.4881621,54.7791873 55.5163302,54.6214463 55.516897,54.4624 C55.5168161,54.4303678 55.5156153,54.3983483 55.513297,54.3664 L64.850727,48.7047 C65.0115697,48.8584437 65.2072112,48.9711738 65.421041,49.0329 Z M73.165601,57.6938 C73.0947405,57.78915 73.0365411,57.8932846 72.992458,58.0036 L68.256131,57.6499 C68.1515196,57.0843292 67.705809,56.6437087 67.139074,56.5456 L66.446153,48.9252 C66.458349,48.9183847 66.4704404,48.9113839 66.482423,48.9042 L73.165601,57.6938 Z M29.309527,56.1419 L22.615252,54.2826 C22.5345743,53.6766219 22.0633516,53.1967654 21.458938,53.1051 L20.970029,49.8258 L29.309527,56.1419 Z M81.907085,52.3153 C81.8740688,52.3743759 81.845461,52.4358097 81.821495,52.4991 L79.562884,52.4991 C79.5437588,52.2860386 79.4751647,52.0803827 79.362561,51.8985 L80.127617,49.9636 L81.907085,52.3153 Z M53.949839,55.8218 L54.476323,63.8905 L45.968381,55.0862 C45.970955,55.0819983 48.253056,54.9913317 52.814684,54.8142 C52.9566355,55.3478038 53.4036162,55.7443519 53.949839,55.8218 Z M62.244697,61.5524 C62.2264205,61.6423191 62.2171945,61.7338423 62.217157,61.8256 C62.2171909,61.8582991 62.2183916,61.8909866 62.220757,61.9236 L56.391871,64.2221 C56.1620826,63.9653575 55.8442436,63.8042882 55.501318,63.7708 L54.987245,55.8876 L62.244697,61.5524 Z M62.840301,62.9752 L61.898745,65.4861 C61.4905456,65.5155899 61.1167227,65.725459 60.878997,66.0586 L56.732909,65.3046 C56.7371363,65.2673594 56.7398386,65.2299615 56.741009,65.1925 L62.678273,62.8513 C62.7293409,62.8965443 62.7833997,62.937958 62.840301,62.9752 Z M66.022684,67.7061 L63.363094,66.7233 C63.3284932,66.365587 63.1551598,66.0356554 62.880234,65.8042 L63.868104,63.1704 C63.869304,63.1704024 64.5874973,64.6823024 66.022684,67.7061 Z M60.638408,67.0625 C60.6928453,67.419477 60.8855826,67.7406903 61.174954,67.9567 L61.016238,69.1862 C60.8482952,69.216733 60.6875095,69.2782828 60.542108,69.3677 L57.164766,66.4309 L60.638408,67.0625 Z M66.060943,68.8195 L62.291344,69.6326 C62.2140011,69.5438903 62.1255844,69.4654822 62.028264,69.3993 L62.180608,68.2174 C62.5304813,68.1698967 62.8486533,67.9895668 63.069154,67.7138 L66.060943,68.8195 Z" id="Shape"></path>
        </g>
    </g>
</svg>